<svg width="10" height="10" viewBox="0 0 18 19" fill="none" xmlns="http://www.w3.org/2000/svg">
<path d="M4.125 17C3.8125 17 3.54688 16.8906 3.32812 16.6719C3.10938 16.4531 3 16.1875 3 15.875V7.7375C3 7.425 3.10938 7.15937 3.32812 6.94062C3.54688 6.72187 3.8125 6.6125 4.125 6.6125H5.4375V4.8125C5.4375 3.825 5.78437 2.98438 6.47812 2.29063C7.17188 1.59688 8.0125 1.25 9 1.25C9.9875 1.25 10.8281 1.59688 11.5219 2.29063C12.2156 2.98438 12.5625 3.825 12.5625 4.8125V6.6125H13.875C14.1875 6.6125 14.4531 6.72187 14.6719 6.94062C14.8906 7.15937 15 7.425 15 7.7375V15.875C15 16.1875 14.8906 16.4531 14.6719 16.6719C14.4531 16.8906 14.1875 17 13.875 17H4.125ZM4.125 15.875H13.875V7.7375H4.125V15.875ZM9 13.25C9.4 13.25 9.74063 13.1125 10.0219 12.8375C10.3031 12.5625 10.4438 12.2312 10.4438 11.8438C10.4438 11.4688 10.3031 11.1281 10.0219 10.8219C9.74063 10.5156 9.4 10.3625 9 10.3625C8.6 10.3625 8.25937 10.5156 7.97812 10.8219C7.69687 11.1281 7.55625 11.4688 7.55625 11.8438C7.55625 12.2312 7.69687 12.5625 7.97812 12.8375C8.25937 13.1125 8.6 13.25 9 13.25ZM6.5625 6.6125H11.4375V4.8125C11.4375 4.1375 11.2 3.5625 10.725 3.0875C10.25 2.6125 9.675 2.375 9 2.375C8.325 2.375 7.75 2.6125 7.275 3.0875C6.8 3.5625 6.5625 4.1375 6.5625 4.8125V6.6125Z" fill="#666666"/>
</svg>
