<svg width="10" height="10" viewBox="0 0 18 19" fill="none" xmlns="http://www.w3.org/2000/svg">
<path d="M16.1719 9.50022C16.1719 8.30711 15.8743 7.13283 15.306 6.08377C14.7376 5.03471 13.9166 4.14401 12.9171 3.49235C11.9177 2.8407 10.7715 2.44868 9.58231 2.35181C8.39313 2.25493 7.19857 2.45627 6.10685 2.93757C5.01512 3.41888 4.06072 4.16495 3.3301 5.1082C2.59947 6.05144 2.11572 7.16206 1.92265 8.33945C1.72958 9.51684 1.8333 10.7238 2.22441 11.851C2.61552 12.9782 3.28167 13.99 4.1625 14.7948L4.24688 14.8651C5.55683 16.0285 7.248 16.671 9 16.671C10.752 16.671 12.4432 16.0285 13.7531 14.8651L13.8375 14.7948C14.5737 14.1233 15.1616 13.3056 15.5635 12.3939C15.9655 11.4822 16.1727 10.4966 16.1719 9.50022ZM2.67188 9.50022C2.67046 8.46713 2.922 7.44941 3.40452 6.53593C3.88704 5.62245 4.58586 4.84099 5.43997 4.2598C6.29407 3.67862 7.27748 3.31537 8.3043 3.2018C9.33113 3.08823 10.3701 3.22777 11.3306 3.60826C12.2911 3.98874 13.1438 4.59858 13.8143 5.38453C14.4848 6.17049 14.9526 7.10864 15.177 8.11706C15.4014 9.12549 15.3755 10.1735 15.1016 11.1696C14.8276 12.1657 14.314 13.0796 13.6055 13.8315C12.941 12.8035 11.9505 12.0285 10.793 11.6307C11.3708 11.2458 11.8095 10.6852 12.0441 10.0318C12.2787 9.3783 12.2968 8.6667 12.0958 8.00215C11.8947 7.33761 11.4852 6.7554 10.9277 6.3416C10.3702 5.92781 9.69429 5.70439 9 5.70439C8.30571 5.70439 7.62984 5.92781 7.07233 6.3416C6.51482 6.7554 6.10526 7.33761 5.90421 8.00215C5.70315 8.6667 5.72128 9.3783 5.9559 10.0318C6.19052 10.6852 6.62918 11.2458 7.20703 11.6307C6.04947 12.0285 5.05903 12.8035 4.39453 13.8315C3.28707 12.6615 2.67052 11.1113 2.67188 9.50022ZM6.60938 8.93772C6.60938 8.4649 6.74958 8.0027 7.01227 7.60956C7.27495 7.21642 7.64832 6.91001 8.08515 6.72907C8.52198 6.54813 9.00265 6.50079 9.46639 6.59303C9.93013 6.68527 10.3561 6.91296 10.6904 7.24729C11.0248 7.58163 11.2524 8.0076 11.3447 8.47133C11.4369 8.93507 11.3896 9.41574 11.2087 9.85257C11.0277 10.2894 10.7213 10.6628 10.3282 10.9255C9.93503 11.1881 9.47282 11.3283 9 11.3283C8.36654 11.3265 7.75955 11.074 7.31162 10.6261C6.8637 10.1782 6.61123 9.57118 6.60938 8.93772ZM5.02031 14.4221C5.4339 13.7365 6.01762 13.1693 6.71487 12.7756C7.41213 12.3819 8.19927 12.175 9 12.175C9.80073 12.175 10.5879 12.3819 11.2851 12.7756C11.9824 13.1693 12.5661 13.7365 12.9797 14.4221C11.8528 15.3319 10.4483 15.8281 9 15.8281C7.55172 15.8281 6.14716 15.3319 5.02031 14.4221Z" fill="#666666"/>
</svg>
